<?xml version="1.0" encoding="utf-8"?>
<!-- Generator: Adobe Illustrator 16.0.0, SVG Export Plug-In . SVG Version: 6.00 Build 0)  -->
<!DOCTYPE svg PUBLIC "-//W3C//DTD SVG 1.1//EN" "http://www.w3.org/Graphics/SVG/1.1/DTD/svg11.dtd">
<svg version="1.1" xmlns="http://www.w3.org/2000/svg" xmlns:xlink="http://www.w3.org/1999/xlink" x="0px" y="0px" width="200px"
	 height="250px" viewBox="0 0 200 250" enable-background="new 0 0 200 250" xml:space="preserve">
<g id="Layer_1">
	<g>
		<g>
			<path fill="#AE2431" d="M72.352,185.027h60.742c-0.498,0.479-1.099,0.836-1.646,1.257c-6.087,4.446-12.173,8.896-18.259,13.341
				c-0.258,0.176-0.484,0.406-0.771,0.533c-11.421-0.027-22.846,0.003-34.269-0.016c-0.725-0.037-1.399,0.272-2.074,0.49
				c-1.257,0.457-2.452,1.102-3.487,1.952c-0.773,0.656-1.504,1.394-1.994,2.289c-0.557,0.937-0.857,2.017-0.902,3.101
				c-0.076,1.647,0.516,3.252,1.332,4.657c0.586,0.903,1.095,1.854,1.686,2.754c1.546,2.462,3.518,4.626,5.654,6.585
				c1.942,1.95,4.036,3.776,6.4,5.2c1.586,0.959,3.308,1.315,5.079,1.86c0.254,0.076,0.493,0.051,0.755,0.1
				c6.11-0.005,12.221-0.011,18.333,0.003c0.204-0.026,0.4,0.014,0.6-0.04c1.426-0.423,2.816-0.585,4.134-1.273
				c2.62-1.37,4.917-3.278,7.024-5.334c0.566-0.594,1.207-1.113,1.771-1.709c1.429-1.387,2.728-2.909,3.858-4.547
				c7.025-0.006,14.052-0.004,21.078,0c-1.211,3.138-2.955,6.055-5.023,8.701c-3.028,3.879-6.669,7.237-10.539,10.262
				c-0.548,0.437-1.152,0.796-1.739,1.18c-2.276,1.432-4.649,2.736-7.179,3.664c-1.113,0.415-2.25,0.771-3.408,1.033
				c-0.406,0.095-0.826,0.093-1.23,0.199H80.864c-0.464-0.137-0.935-0.238-1.405-0.348c-3.125-0.808-6.076-2.186-8.835-3.846
				c-1.084-0.676-2.196-1.32-3.187-2.133c-3.313-2.614-6.454-5.471-9.176-8.704c-1.957-2.334-3.691-4.87-5.031-7.61
				c-0.342-0.665-0.604-1.365-0.911-2.046c-0.557-1.431-1.034-2.894-1.371-4.394c-0.374-1.58-0.562-3.194-0.756-4.804v-0.028
				c0.038-0.603,0.063-1.205,0.086-1.81c0.146-3.431,1.093-6.849,2.879-9.792c1.248-2.09,2.914-3.917,4.836-5.404
				c1.73-1.362,3.686-2.418,5.725-3.235c2.595-1.03,5.339-1.658,8.11-1.972C72.006,185.12,72.178,185.07,72.352,185.027z"/>
		</g>
	</g>
</g>
<g id="Layer_2">
	<path fill="#FFFFFF" d="M109.521,231.25c1.961-0.47,3.83-0.721,5.631-1.62c0.608-0.34,1.209-0.688,1.81-1.03
		c1.08-0.67,2.14-1.39,3.14-2.18c0.812-0.59,1.551-1.27,2.312-1.93c2.007-1.82,3.817-3.86,5.387-6.061c5.37-0.01,10.74,0,16.11,0
		c-1.67,3.131-3.84,5.98-6.311,8.53c-0.721,0.71-1.41,1.44-2.17,2.11c-1.261,1.17-2.609,2.25-3.971,3.31
		c-1.37,1.03-2.76,2.04-4.229,2.931c-0.771,0.51-1.592,0.92-2.4,1.359c-0.87,0.38-1.721,0.79-2.62,1.09
		c-1.46,0.521-2.97,0.87-4.489,1.12c-0.58,0.07-1.15,0.2-1.729,0.19c-9.671,0-19.33,0-29,0c-1.26-0.012-2.53,0.02-3.8-0.012
		c-1.14-0.108-2.28-0.34-3.4-0.59c-0.7-0.17-1.4-0.35-2.08-0.6c-0.94-0.28-1.82-0.7-2.71-1.09c-2.42-1.16-4.62-2.721-6.77-4.32
		c-1.36-1.061-2.71-2.15-3.99-3.32c-0.83-0.72-1.58-1.51-2.36-2.279c-2.94-3.051-5.46-6.551-7.16-10.439
		c-0.17-0.41-0.33-0.811-0.5-1.22c-1.01-2.681-1.58-5.54-1.55-8.41c0.11-1.351,0.08-2.72,0.34-4.06c0.44-2.642,1.46-5.211,3.11-7.33
		c0.35-0.41,0.69-0.842,1.04-1.24c1.09-1.131,2.3-2.15,3.63-2.971c0.7-0.471,1.45-0.819,2.18-1.221c0.47-0.229,0.95-0.41,1.42-0.619
		c0.59-0.271,1.21-0.439,1.81-0.671c0.77-0.27,1.56-0.438,2.34-0.659c1.05-0.24,2.1-0.461,3.17-0.601
		c0.57-0.069,1.14-0.21,1.72-0.188c17.5,0,34.99-0.012,52.49,0c-4.78,3.56-9.56,7.108-14.34,10.658
		c-0.14,0.092-0.32,0.03-0.47,0.062c-11.26,0-22.53-0.011-33.8,0.01c-1.66,0.17-3.27,0.681-4.76,1.42c-2.23,1.12-4.2,2.94-5.12,5.29
		c-0.53,1.43-0.72,3.05-0.24,4.521c0.59,2.108,1.48,4.14,2.56,6.039c1.83,3.301,4.24,6.239,6.96,8.84
		c1.01,0.931,2.04,1.841,3.16,2.641c0.68,0.561,1.43,1.029,2.16,1.521c0.5,0.328,1.04,0.608,1.56,0.92
		c1.58,0.93,3.144,1.395,5,1.848c0.81,0.24,1.62,0.29,2.48,0.25"/>
</g>
<g id="Layer_3">
	<g>
		<path fill="#AE2431" d="M94.876,31.32h0.125c0.435,0.369,0.805,0.81,1.182,1.237c2.465,2.86,4.353,6.285,5.117,10.003
			c0.151,0.847,0.29,1.699,0.31,2.561c0.004,2.22-0.474,4.451-1.468,6.441c-0.902,1.915-2.216,3.606-3.654,5.147
			c-0.711,0.716-1.409,1.447-2.175,2.105c-0.517,0.442-0.995,0.925-1.489,1.391c-1.209,1.175-2.127,2.606-2.93,4.079
			c1.185-1.365,2.635-2.503,4.247-3.321c1.414-0.69,2.874-1.319,4.151-2.252c0.677-0.544,1.251-1.201,1.844-1.834
			c1.405-1.562,2.594-3.379,3.124-5.433c0.349-1.401,0.468-2.864,0.345-4.302c-0.037-0.753,0-1.51-0.106-2.258
			c-0.431-3.481-1.966-6.829-4.37-9.39c-0.35-0.363-0.763-0.68-1.019-1.122c0.21,0.009,0.407,0.089,0.595,0.181
			c3.915,1.896,7.236,5.002,9.37,8.795c0.763,1.312,1.368,2.708,1.851,4.146c0.605,1.863,0.969,3.821,0.887,5.785
			c-0.022,1.265-0.246,2.522-0.629,3.727c-0.455,1.331-1.117,2.591-1.969,3.711c-1.027,1.403-2.294,2.609-3.613,3.733
			c0.315-0.02,0.652-0.004,0.94-0.164c1.489-0.716,2.884-1.656,4.026-2.856c1.099-1.139,1.927-2.539,2.393-4.051
			c0.473-1.566,0.564-3.238,0.331-4.854c-0.151-0.882-0.369-1.753-0.683-2.591c-0.162-0.419-0.349-0.827-0.51-1.245
			c0.523,0.163,0.787,0.682,1.112,1.081c1.869,2.429,3.414,5.164,4.166,8.152c0.519,2.127,0.618,4.365,0.194,6.518
			c2.002,0.008,4.004-0.002,6.005,0.004c0.002,2.573,0.002,5.146,0,7.718c-1.483,0.005-2.966-0.006-4.449,0.004
			c0.372,1.099,0.651,2.253,0.556,3.423c-0.037,0.549-0.174,1.084-0.312,1.615c0.628-0.052,1.255-0.132,1.886-0.164
			c1.23-0.065,2.465-0.045,3.698-0.02c3.373,0.136,6.69,0.818,9.976,1.549c2.103,0.48,4.196,0.994,6.291,1.506
			c2.396,0.641,4.801,1.294,7.273,1.571c1.804,0.232,3.626,0.211,5.441,0.187c1.205-0.039,2.41-0.136,3.603-0.312
			c2-0.315,3.96-0.831,5.922-1.32c0.154-0.028,0.335-0.106,0.479-0.003c0.393,0.28,0.744,0.614,1.117,0.922
			c2.726,2.274,5.444,4.556,8.17,6.83c0.569,0.471,1.123,0.964,1.709,1.419v0.024c-0.065,1.001-0.037,2.004-0.041,3.007
			c0,28.982,0,57.965,0,86.948c-2.293-0.062-4.586-0.012-6.879-0.027c-20.014,0-40.026-0.002-60.039,0c-0.004,1.867,0,3.732,0,5.6
			c-0.006,0.609,0.029,1.221-0.025,1.83c-0.042,0.184-0.143,0.35-0.229,0.518c-0.785,1.385-1.953,2.541-3.308,3.373
			c-0.95,0.582-2.034,0.914-3.138,1.041h-0.564c-1.588-0.148-3.096-0.844-4.298-1.879c-0.941-0.779-1.75-1.729-2.295-2.828
			c-0.134-0.304-0.092-0.654-0.11-0.973c0.01-2.227,0.006-4.453,0.004-6.68c-21.066-0.002-42.132,0-63.199-0.002
			c-1.239,0.01-2.48-0.022-3.719,0.024c-0.002-28.995,0-57.989-0.001-86.984c-0.008-0.991,0.034-1.982-0.04-2.971v-0.022
			c0.467-0.359,0.909-0.749,1.361-1.125c2.841-2.373,5.678-4.75,8.518-7.122c0.373-0.308,0.724-0.642,1.118-0.922
			c0.144-0.104,0.323-0.025,0.479,0.003c1.962,0.489,3.922,1.005,5.922,1.32c1.129,0.167,2.269,0.262,3.41,0.306
			c1.999,0.039,4.007,0.055,5.99-0.226c2.913-0.35,5.712-1.263,8.56-1.926c2.585-0.633,5.174-1.258,7.786-1.772
			c2.785-0.544,5.612-0.955,8.457-0.904c1.326-0.034,2.648,0.066,3.966,0.204c-0.089-0.333-0.17-0.669-0.235-1.008
			c-0.256-1.357,0.035-2.744,0.479-4.03c-1.483-0.01-2.966,0.001-4.449-0.004c-0.001-2.573-0.002-5.146,0-7.718
			c2.413-0.005,4.826,0.003,7.239-0.003c-0.212-0.828-0.443-1.651-0.587-2.494c-0.384-1.763-0.403-3.616,0.043-5.369
			c0.473-1.788,1.488-3.393,2.741-4.738c0.489-0.475,1.04-0.878,1.545-1.335c0.809-0.75,1.599-1.521,2.357-2.321
			c0.664-0.725,1.374-1.416,1.936-2.227c0.655-0.894,1.266-1.821,1.812-2.786c0.885-1.6,1.53-3.35,1.752-5.17
			c0.167-1.639-0.025-3.323-0.613-4.865C95.42,32.517,95.127,31.927,94.876,31.32z"/>
	</g>
	<path fill="#0F5A28" d="M97.82,0h4.36c3.29,0.19,6.57,0.61,9.78,1.36c1.43,0.33,2.84,0.74,4.22,1.26c1.141,0.46,2.28,1,3.221,1.82
		c0.38,0.33,0.68,0.74,0.89,1.19c0.15,0.33,0.14,0.7,0.15,1.05c0,1.47,0,2.93,0,4.4c5.06,0.59,10.05,1.61,15,2.8
		c6.739,1.68,13.399,3.72,19.829,6.37c4.79,1.84,9.521,3.85,14.131,6.12c5.409,2.68,10.68,5.73,15.439,9.47
		c0.141,0.13,0.04,0.35,0.08,0.52c-0.01,3.73,0,7.47,0,11.2c0,0.47-0.04,0.95,0.03,1.42c0.64,1,1.29,2,2.02,2.93
		c0.44,0.62,0.91,1.22,1.42,1.78c2.74,3.27,6.17,5.9,9.86,8.02c0.57,0.35,1.18,0.63,1.75,0.98v39.03h-0.1
		c-1.21-0.47-2.45-0.86-3.65-1.37c-0.75-0.32-1.51-0.61-2.25-0.95c-0.7-0.34-1.41-0.65-2.1-0.98c-0.881-0.46-1.761-0.91-2.62-1.38
		c-0.78-0.47-1.59-0.91-2.36-1.4c-0.88-0.58-1.8-1.12-2.64-1.76c-1.561-1.1-3.061-2.29-4.471-3.58c-0.89-0.76-1.699-1.6-2.52-2.43
		c-0.63-0.71-1.29-1.39-1.87-2.13c-2.03-2.45-3.729-5.16-5.02-8.06c-0.12-0.25-0.11-0.53-0.12-0.8c0-3.81,0-7.62,0-11.43
		c-11.55-8.54-24.601-15.07-38.4-19.05c-5.79-1.66-11.7-2.89-17.68-3.57c-0.01-4,0.01-7.99,0-11.99c-3.94-1.22-8.05-1.81-12.16-2.08
		c-0.91-0.03-1.81-0.14-2.72-0.08c-4.57,0.2-9.14,0.8-13.52,2.16c-0.01,4,0.01,7.99,0,11.98c-3.45,0.38-6.87,0.99-10.27,1.72
		C59,48.13,43.32,55.4,29.72,65.45c0,3.8,0,7.59,0,11.39c-0.02,0.25,0.02,0.52-0.08,0.76c-0.68,1.52-1.45,3-2.35,4.4
		c-0.96,1.57-2.1,3.01-3.28,4.41c-0.77,0.86-1.54,1.74-2.38,2.54c-0.66,0.7-1.41,1.32-2.12,1.96c-0.65,0.6-1.36,1.12-2.04,1.68
		c-1.56,1.21-3.2,2.32-4.88,3.36c-0.66,0.38-1.32,0.77-1.97,1.15c-0.79,0.42-1.58,0.82-2.37,1.24c-0.65,0.33-1.34,0.62-2.01,0.95
		c-0.8,0.39-1.64,0.7-2.46,1.05c-1.21,0.52-2.47,0.9-3.68,1.38H0V62.7c0.16-0.12,0.34-0.21,0.52-0.3c3.08-1.65,6-3.64,8.56-6.04
		c1.12-1.02,2.1-2.17,3.09-3.31c1-1.26,1.93-2.57,2.79-3.93c0.15-0.15,0.1-0.37,0.12-0.56c0-4.07,0-8.14,0-12.2
		c0.03-0.17-0.05-0.39,0.08-0.52c2.38-1.86,4.88-3.57,7.48-5.13c1.68-1.04,3.42-1.98,5.16-2.92c4.35-2.28,8.85-4.3,13.4-6.15
		c1.48-0.61,2.99-1.15,4.47-1.77c7.01-2.8,14.26-4.95,21.62-6.62c4.05-0.91,8.14-1.69,12.27-2.17c0-1.47,0-2.93,0-4.4
		c0.01-0.35,0-0.72,0.15-1.05c0.21-0.45,0.51-0.86,0.9-1.19c0.64-0.56,1.38-1,2.15-1.36c1.34-0.63,2.76-1.06,4.19-1.45
		C90.5,0.71,94.16,0.21,97.82,0z"/>
	<g>
		<g>
			<path fill="#0F5A28" d="M21.64,196.08h33.983c-1.717,2.643-2.556,5.787-2.657,8.919c-0.029,0.961-0.139,1.922-0.063,2.885
				c0.107,2.183,0.601,4.329,1.302,6.392c0.987,2.759,2.385,5.365,4.099,7.74c1.646,2.315,3.577,4.414,5.639,6.362
				c1.393,1.279,2.825,2.521,4.354,3.636c10.358-9.269,20.734-18.517,31.094-27.783c0.18-0.153,0.334-0.348,0.549-0.453
				c0.121-0.058,0.219,0.074,0.31,0.133c8.959,8.014,17.932,16.017,26.895,24.027c1.53,1.351,3.033,2.734,4.578,4.071
				c2.41-1.817,4.672-3.831,6.734-6.036c1.749-1.873,3.32-3.914,4.661-6.098c1.416-2.364,2.589-4.893,3.271-7.57
				c0.342-1.261,0.549-2.556,0.662-3.856c0.065-0.884,0.107-1.772,0.023-2.656c-0.061-1.208-0.09-2.424-0.333-3.612
				c-0.382-2.162-1.179-4.248-2.358-6.102h33.977v7.52c-2.172,0.004-4.342-0.005-6.515,0.004
				c-8.29,15.463-16.575,30.929-24.858,46.396h-18.285c-0.659-0.655-1.344-1.284-1.992-1.948c-0.68-0.614-1.299-1.29-1.977-1.905
				c-1.363-1.356-2.762-2.678-4.125-4.033c-0.693-0.625-1.32-1.319-2.016-1.945c-0.801-0.813-1.644-1.582-2.443-2.396
				c-0.733-0.666-1.404-1.396-2.138-2.062c-0.79-0.81-1.631-1.569-2.422-2.378c-0.718-0.655-1.38-1.368-2.098-2.021
				c-0.791-0.811-1.632-1.569-2.423-2.377c-0.733-0.666-1.403-1.397-2.137-2.063c-0.729-0.751-1.51-1.45-2.242-2.199
				c-0.91-0.854-1.779-1.747-2.688-2.603c-2.781,2.689-5.547,5.396-8.319,8.095c-0.626,0.573-1.199,1.202-1.83,1.771
				c-0.78,0.793-1.605,1.541-2.382,2.336c-0.771,0.709-1.489,1.473-2.26,2.182c-0.749,0.771-1.551,1.488-2.3,2.259
				c-0.736,0.677-1.423,1.403-2.159,2.082c-0.77,0.79-1.591,1.528-2.361,2.317c-0.771,0.709-1.489,1.473-2.26,2.182
				c-0.708,0.732-1.47,1.41-2.18,2.141c-0.899,0.842-1.759,1.726-2.657,2.569h-18.28c-7.913-14.806-15.856-29.597-23.777-44.397
				c-0.366-0.664-0.704-1.344-1.083-2c-2.171-0.006-4.343,0-6.514-0.002L21.64,196.08L21.64,196.08z M51.524,242.477
				c0.95,1.787,1.927,3.56,2.853,5.356"/>
		</g>
	</g>
</g>
<g id="Layer_4">
	<g>
		<path fill="#AE2431" d="M88.497,3.1c3.235-0.668,6.516-1.17,9.823-1.258c1.266-0.002,2.534-0.008,3.801,0.004
			c1.992,0.079,3.977,0.3,5.945,0.605c1.885,0.335,3.771,0.66,5.615,1.185c1.274,0.376,2.56,0.779,3.719,1.445
			c0.486,0.307,0.99,0.654,1.254,1.186c0.166,0.413,0.011,0.881-0.247,1.221c-0.634,0.818-1.511,1.39-2.354,1.967
			c-0.603,0.395-1.225,0.759-1.848,1.12c-0.016,6.185,0.001,12.369-0.008,18.554c-0.631-0.149-1.252-0.327-1.879-0.485
			c-2.678-0.632-5.402-1.054-8.139-1.339c-1.854-0.153-3.718-0.35-5.581-0.219c-3.408,0.187-6.803,0.638-10.134,1.38
			c-0.898,0.18-1.773,0.452-2.664,0.663c-0.01-6.185,0.004-12.37-0.007-18.555c-1.347-0.792-2.735-1.568-3.85-2.68
			c-0.319-0.331-0.667-0.729-0.664-1.216c-0.045-0.246,0.081-0.469,0.211-0.664c0.473-0.637,1.202-1.003,1.898-1.343
			C85.019,3.937,86.76,3.488,88.497,3.1z"/>
		<path fill="#AE2431" d="M59.855,17.019c7.832-2.197,15.812-3.932,23.903-4.822c0.002,9.771,0.002,19.543,0,29.313
			c-3.045,0.279-6.062,0.806-9.052,1.436c-6.272,1.358-12.414,3.29-18.371,5.673c-6.211,2.48-12.231,5.442-17.985,8.854
			c-6.79,4.022-13.213,8.676-19.085,13.953c-0.823,0.725-1.604,1.494-2.422,2.224c-0.007-12.375-0.002-24.75-0.002-37.125
			c5.326-3.741,11.017-6.943,16.88-9.761c2.556-1.216,5.141-2.372,7.764-3.437c1.482-0.62,2.99-1.176,4.489-1.751
			c1.678-0.663,3.396-1.221,5.094-1.828c1.287-0.454,2.594-0.848,3.892-1.268C56.578,17.945,58.223,17.504,59.855,17.019z"/>
		<path fill="#AE2431" d="M116.241,12.192c2.731,0.277,5.448,0.695,8.153,1.175c5.285,0.946,10.519,2.175,15.686,3.633
			c1.592,0.472,3.195,0.902,4.773,1.423c1.123,0.355,2.246,0.72,3.371,1.073c1.393,0.489,2.784,0.976,4.178,1.463
			c1.584,0.595,3.166,1.203,4.746,1.812c9.117,3.654,17.957,8.105,26.011,13.755c0,12.373,0.004,24.747-0.002,37.12
			c-1.44-1.322-2.865-2.662-4.358-3.925c-5.984-5.132-12.494-9.646-19.355-13.525c-8.394-4.75-17.312-8.587-26.563-11.315
			c-5.437-1.594-10.997-2.8-16.639-3.367C116.238,31.739,116.239,21.966,116.241,12.192z"/>
		<path fill="#AE2431" d="M13.114,54.474c0.655-0.813,1.358-1.59,1.96-2.443c0.014,8.204,0.002,16.408,0.006,24.611
			c0.021,0.153-0.021,0.342,0.076,0.481c0.769,1.067,1.867,1.897,3.108,2.338c1.695,0.631,3.557,0.645,5.331,0.409
			c1.076-0.159,2.134-0.427,3.169-0.756c-0.9,1.687-1.985,3.27-3.141,4.791c-1.491,1.877-3.087,3.684-4.903,5.255
			c-2.775,2.528-5.899,4.658-9.2,6.439c-2.487,1.368-5.101,2.492-7.757,3.486C1.76,87.207,1.755,75.328,1.765,63.45
			c1.863-0.897,3.665-1.932,5.34-3.146c0.932-0.729,1.864-1.46,2.707-2.292C11.01,56.928,12.066,55.701,13.114,54.474z"/>
		<path fill="#AE2431" d="M184.924,52.032c0.461,0.676,1.024,1.273,1.531,1.914c0.67,0.807,1.348,1.608,2.061,2.379
			c0.797,0.909,1.697,1.717,2.582,2.536c0.691,0.564,1.373,1.142,2.101,1.661c1.591,1.119,3.286,2.082,5.036,2.929
			c0.012,11.878,0.006,23.756,0.004,35.634c-2.567-0.955-5.086-2.05-7.502-3.342c-3.443-1.842-6.7-4.056-9.581-6.698
			c-1.726-1.502-3.247-3.222-4.675-5.005c-1.194-1.563-2.317-3.188-3.244-4.926c1.242,0.402,2.521,0.692,3.82,0.83
			c1.957,0.201,4.043,0.008,5.773-0.994c0.809-0.505,1.588-1.126,2.072-1.961c0.041-4.396,0.006-8.793,0.018-13.189
			C184.923,59.877,184.914,55.955,184.924,52.032z"/>
		<path fill="#AE2431" d="M81.24,9.442c0.702,0.535,1.448,1.018,2.25,1.392c-0.751-0.004-1.5,0.036-2.247,0.089
			C81.238,10.429,81.238,9.936,81.24,9.442z"/>
		<path fill="#AE2431" d="M118.759,9.443c0.002,0.493,0.001,0.986,0,1.479c-0.749-0.047-1.498-0.093-2.248-0.089
			C117.313,10.461,118.057,9.977,118.759,9.443z"/>
		<path fill="#AE2431" d="M16.833,76.38c3.551-3.443,7.302-6.683,11.239-9.678c0.022,3.289-0.003,6.579,0.013,9.869
			c-0.671,0.283-1.363,0.514-2.057,0.733c-1.585,0.548-3.251,0.977-4.941,0.884C19.52,78.08,18.013,77.405,16.833,76.38z"/>
		<path fill="#AE2431" d="M171.927,66.704c3.222,2.445,6.308,5.068,9.278,7.812c0.662,0.615,1.327,1.228,1.959,1.874
			c-1.137,0.969-2.55,1.639-4.046,1.771c-2.024,0.227-3.979-0.468-5.87-1.088c-0.441-0.175-0.909-0.285-1.332-0.504
			C171.93,73.28,171.907,69.992,171.927,66.704z"/>
	</g>
	<path fill="#105A29" d="M79.18,66.24c13.88,0,27.759-0.001,41.638,0c0.002,1.373,0.002,2.746,0,4.119
		c-13.879,0-27.758,0.001-41.638,0C79.179,68.986,79.179,67.613,79.18,66.24z"/>
	<path fill="#105A29" d="M83.832,72.165c10.78-0.009,21.559-0.005,32.339-0.002c0.474,1.011,0.819,2.108,0.774,3.237
		c0.027,0.706-0.15,1.395-0.34,2.068c-3.31,0.584-6.541,1.56-9.652,2.824c-2.414,1.007-4.778,2.161-6.958,3.611
		c-1.509-1.028-3.135-1.869-4.778-2.659c-3.76-1.75-7.737-3.05-11.822-3.777c-0.289-0.921-0.396-1.893-0.321-2.855
		C83.177,73.758,83.472,72.942,83.832,72.165z"/>
	<g>
		<path fill="#FFFFFF" d="M62.894,81.03c4.801-1.364,9.74-2.537,14.767-2.385c4.176,0.161,8.351,0.888,12.267,2.367
			c1.016,0.368,2.01,0.791,2.987,1.253c2.175,0.976,4.288,2.086,6.384,3.22c0.004,28.264,0,56.529,0.002,84.792
			c-2.313-0.996-4.62-2.008-6.973-2.905c-0.99-0.388-2.01-0.687-3.015-1.028c-3.598-1.117-7.36-1.593-11.111-1.8
			c-1.472-0.128-2.951-0.034-4.422,0.06c-3.644,0.252-7.26,0.912-10.76,1.957c-0.906,0.262-1.789,0.594-2.692,0.864
			c-1.492,0.5-2.97,1.075-4.525,1.354c-1.684,0.291-3.388,0.421-5.09,0.557c-1.116,0.072-2.229-0.086-3.335-0.211
			c-1.523-0.227-3.041-0.579-4.463-1.18c-1.663-0.684-3.156-1.723-4.487-2.92c-0.019-13.596-0.002-27.189-0.008-40.784
			c0.07-2,0.03-4,0.04-6c0-12.091,0.001-24.182-0.001-36.273c2.606,0.808,5.308,1.309,8.034,1.447
			c3.103,0.147,6.259,0.262,9.31-0.433c1.713-0.339,3.38-0.865,5.059-1.336C61.546,81.461,62.208,81.207,62.894,81.03z"/>
		<path fill="#FFFFFF" d="M118.941,78.92c2.055-0.238,4.129-0.359,6.197-0.236c3.36,0.187,6.657,0.932,9.906,1.774
			c0.96,0.255,1.915,0.53,2.87,0.804c1.024,0.355,2.078,0.617,3.117,0.926c1.563,0.452,3.149,0.85,4.765,1.072
			c2.111,0.314,4.254,0.295,6.383,0.221c2.176-0.055,4.356-0.269,6.483-0.755c0.968-0.215,1.927-0.471,2.877-0.757
			c-0.004,13.531,0.001,27.063-0.003,40.592c-0.005,0.693,0.051,1.386,0.043,2.08c-0.01,13.462,0.008,26.923-0.01,40.386
			c-1.193,1.082-2.523,2.024-3.99,2.699c-1.84,0.854-3.85,1.291-5.86,1.491c-0.8,0.076-1.604,0.167-2.409,0.134
			c-1.619-0.142-3.244-0.25-4.848-0.519c-1.084-0.181-2.141-0.495-3.177-0.856c-1.945-0.651-3.88-1.336-5.866-1.854
			c-4.07-1.071-8.277-1.597-12.482-1.642c-4.468,0.18-8.972,0.707-13.213,2.184c-1.274,0.385-2.513,0.88-3.75,1.374
			c-1.77,0.722-3.522,1.483-5.279,2.239c0.003-28.264,0-56.527,0.002-84.792c1.76-0.952,3.535-1.874,5.335-2.747
			c1.266-0.573,2.522-1.175,3.829-1.65C112.779,79.972,115.842,79.261,118.941,78.92z"/>
		<path fill="#FFFFFF" d="M36.775,82.835c0.012,27.403-0.001,54.806,0.007,82.208c0,0.074-0.021,0.15-0.069,0.212
			c-1.528,1.808-3.023,3.644-4.539,5.459c-1.505,1.804-2.987,3.626-4.505,5.418c-0.021-15.337-0.003-30.675-0.009-46.012
			c0.001-13.238-0.003-26.475,0.002-39.713C30.712,87.898,33.725,85.344,36.775,82.835z"/>
		<path fill="#FFFFFF" d="M163.223,82.835c3.053,2.506,6.065,5.062,9.113,7.574c0.008,18.331,0.001,36.661,0.003,54.991
			c-0.004,10.244,0.009,20.486-0.005,30.73c-1.039-1.181-2.014-2.417-3.025-3.62c-2.004-2.409-3.996-4.829-6.006-7.233
			c-0.113-0.129-0.063-0.328-0.084-0.476C163.223,137.479,163.217,110.158,163.223,82.835z"/>
		<path fill="#FFFFFF" d="M73.822,166.214c1.159-0.08,2.318-0.011,3.478-0.006c1.029,0.038,2.06,0.101,3.082,0.229
			c0.832,0.1,1.669,0.164,2.497,0.302c3.474,0.547,6.873,1.526,10.137,2.827c1.906,0.744,3.767,1.6,5.612,2.479
			c-1.632,1.901-3.311,3.765-4.938,5.67c-18.063,0.011-36.125,0.001-54.188,0.004c-3.552-0.006-7.104,0.011-10.656-0.008
			c2.997-3.673,6.009-7.333,9.009-11.002c1.943,1.394,3.971,2.748,6.255,3.515c1.881,0.658,3.896,0.752,5.872,0.771
			c2.377-0.118,4.766-0.29,7.092-0.824c2.127-0.473,4.194-1.174,6.28-1.799C66.778,167.391,70.247,166.419,73.822,166.214z"/>
		<path fill="#FFFFFF" d="M124.26,166.189c2.516-0.097,5.02,0.301,7.463,0.871c1.955,0.465,3.896,0.992,5.814,1.584
			c2.109,0.643,4.213,1.334,6.388,1.729c1.683,0.298,3.388,0.472,5.093,0.559c2.496,0.162,5.076,0.019,7.428-0.906
			c2.063-0.793,3.916-2.033,5.701-3.316c3.008,3.664,6.016,7.329,9.013,11.001c-17.54,0.022-35.08,0.003-52.619,0.01
			c-4.077-0.003-8.154,0.007-12.231-0.004c-1.625-1.907-3.309-3.765-4.936-5.67c2.176-1.053,4.387-2.034,6.652-2.88
			c3.115-1.173,6.354-2.04,9.652-2.499c0.674-0.083,1.348-0.149,2.022-0.228C121.212,166.256,122.736,166.193,124.26,166.189z"/>
	</g>
	<path fill="#105A29" d="M99.998,173.407c1.639,1.752,3.279,3.505,4.925,5.251c0.101,0.122,0.251,0.236,0.209,0.423
		c0.024,2.132-0.004,4.267,0.013,6.399c0.031,0.449-0.101,0.894-0.326,1.278c-0.889,1.54-2.44,2.688-4.18,3.062
		c-0.251,0.054-0.509,0.09-0.766,0.086c-1.013-0.112-1.986-0.514-2.81-1.109c-0.854-0.594-1.581-1.387-2.028-2.331
		c-0.225-0.481-0.175-1.03-0.177-1.546c0.02-1.997-0.023-3.994,0.019-5.99c0.21-0.326,0.509-0.58,0.77-0.865
		C97.091,176.508,98.562,174.973,99.998,173.407z"/>
	<g>
		<path fill="#AE2431" d="M23.801,198.241c9.415,0,18.831-0.003,28.246,0.002c-0.654,1.67-1.118,3.416-1.328,5.198
			c-0.136,1.035-0.172,2.078-0.202,3.119c-0.033,1.047,0.151,2.084,0.288,3.119c0.296,1.812,0.723,3.604,1.337,5.334
			c1.024,2.961,2.544,5.734,4.372,8.273c1.387,1.917,2.93,3.722,4.591,5.408c0.217,0.25,0.45,0.484,0.701,0.701
			c2.086,2.078,4.335,3.989,6.675,5.775c10.221-9.234,20.423-18.49,30.639-27.73c0.27-0.237,0.501-0.521,0.803-0.721
			c0.273,0.07,0.472,0.299,0.687,0.471c7.092,6.429,14.189,12.85,21.285,19.274c3.211,2.9,6.407,5.816,9.627,8.706
			c2.35-1.804,4.613-3.727,6.715-5.814c0.236-0.215,0.472-0.438,0.682-0.68c2.083-2.119,3.988-4.419,5.605-6.914
			c1.015-1.576,1.93-3.224,2.64-4.961c0.208-0.447,0.384-0.906,0.542-1.373c0.829-2.203,1.342-4.515,1.631-6.848
			c0.208-1.305,0.159-2.631,0.074-3.943c-0.146-2.191-0.655-4.353-1.458-6.396c9.416-0.005,18.831-0.002,28.247-0.001
			c0.002,1.025,0.002,2.052,0,3.078c-1.878,0.005-3.756-0.004-5.633,0.003c-8.021,14.93-16.026,29.866-24.043,44.8
			c-0.297,0.57-0.619,1.13-0.904,1.709c-5.193,0.023-10.387-0.003-15.581,0.014c-0.354,0.082-0.54-0.283-0.771-0.472
			c-0.492-0.442-0.949-0.919-1.42-1.381c-0.688-0.618-1.308-1.308-1.998-1.922c-0.666-0.696-1.391-1.33-2.06-2.021
			c-0.313-0.315-0.653-0.6-0.962-0.918c-0.689-0.711-1.434-1.366-2.12-2.08c-0.63-0.556-1.188-1.186-1.815-1.745
			c-0.519-0.496-1.006-1.021-1.543-1.496c-0.75-0.771-1.55-1.489-2.302-2.258c-0.671-0.596-1.267-1.269-1.937-1.865
			c-0.497-0.488-0.985-0.988-1.502-1.457c-0.748-0.772-1.551-1.487-2.301-2.26c-0.67-0.597-1.271-1.264-1.938-1.861
			c-0.756-0.777-1.565-1.5-2.321-2.277c-0.687-0.62-1.313-1.302-2-1.921c-0.664-0.696-1.39-1.33-2.059-2.021
			c-0.315-0.312-0.634-0.621-0.967-0.91c-0.011-0.002-0.035-0.002-0.046-0.002c-0.651,0.574-1.246,1.207-1.872,1.808
			c-0.49,0.43-0.925,0.916-1.399,1.36c-0.568,0.498-1.065,1.07-1.63,1.57c-0.561,0.533-1.088,1.1-1.666,1.614
			c-0.707,0.733-1.471,1.409-2.18,2.142c-0.729,0.656-1.391,1.383-2.12,2.039c-0.714,0.74-1.485,1.422-2.201,2.16
			c-0.533,0.48-1.03,0.997-1.541,1.498c-0.649,0.577-1.229,1.227-1.877,1.803c-0.693,0.721-1.445,1.381-2.14,2.101
			c-0.316,0.323-0.667,0.612-0.981,0.938c-0.622,0.646-1.302,1.23-1.918,1.881c-0.559,0.521-1.103,1.057-1.643,1.597
			c-0.542,0.471-1.018,1.009-1.546,1.493c-0.583,0.524-1.1,1.115-1.69,1.631c-1.088,1.087-2.206,2.145-3.304,3.221
			c-5.296,0.012-10.593,0.012-15.889,0c-0.926-1.798-1.903-3.57-2.853-5.355c-7.147-13.32-14.294-26.641-21.44-39.961
			c-0.216-0.397-0.423-0.803-0.65-1.194c-1.878-0.007-3.756,0.002-5.633-0.003C23.799,200.293,23.798,199.268,23.801,198.241z"/>
	</g>
</g>
<g id="Layer_5">
	<g id="Layer_7">
		<g>
			<g>
				<path fill="#FFFFFF" d="M127.965,16.137c1.303,0.746,2.59,1.524,3.879,2.299c-0.373,0.757-0.688,1.588-0.465,2.442
					c0.979,0.604,2.135,0.815,3.197,1.229c0.042-1.387,0.025-2.772,0.008-4.159c1.066,0.526,2.113,1.095,3.13,1.711
					c0.304,0.216,0.71,0.538,0.585,0.968c-0.139,0.798-0.191,1.607-0.16,2.418c0.715,0.227,1.411,0.588,2.17,0.638
					c0.648-0.392,1.246-0.865,1.91-1.231c1.112,1.067,2.139,2.221,3.075,3.443c-2.481-0.263-4.8-1.239-7.159-1.987
					c-0.006,1.001-0.012,2.005,0.016,3.005c0.434-0.18,0.857-0.368,1.285-0.563c0.609,0.511,0.973,1.226,1.256,1.955
					c-0.238,0.038-0.713,0.122-0.951,0.161c0.003,0.884,0,1.766,0.003,2.65c0.315,0.128,0.635,0.258,0.954,0.388
					c0.646-0.415,1.256-0.882,1.882-1.322c0.948,0.968,2.104,1.855,2.576,3.175c-1.822-0.338-3.597-0.887-5.41-1.256
					c-0.006,0.896-0.006,1.791,0.008,2.687c0.563-0.282,1.12-0.585,1.669-0.901c1.029,1.049,2.225,1.952,3.04,3.194
					c-3.386-0.496-6.585-1.769-9.838-2.775c-0.026,0.818-0.03,1.636-0.026,2.454c1.909,0.677,3.897,1.117,5.816,1.78
					c0.813-0.3,1.598-0.668,2.376-1.046c1.067,0.86,2.08,1.822,2.767,3.022c-0.695-0.072-1.392-0.149-2.064-0.341
					c-2.939-0.823-5.862-1.697-8.762-2.653c-0.025,1.613-0.006,3.228-0.015,4.841c-0.985,0.194-1.987,0.161-2.983,0.164
					c-0.221-0.181-0.438-0.363-0.657-0.544c-0.002-1.835,0.014-3.674-0.011-5.509c-2.903-0.894-5.832-1.709-8.76-2.519
					c-0.326-0.371-0.652-0.745-0.957-1.134c3.245,0.924,6.473,1.91,9.7,2.887c0.022-0.796,0.083-1.598-0.017-2.388
					c-2.157-0.859-4.498-1.17-6.678-1.972c-0.459-0.285-0.781-0.74-1.131-1.139c0.918,0.205,1.809,0.521,2.709,0.79
					c-0.011-1.034,0.072-2.077-0.072-3.105c-1.776-0.844-4.189-0.624-5.412-2.407c1.836,0.419,3.635,0.983,5.443,1.514
					c0.035-0.909,0.104-1.827,0-2.736c-0.811-0.538-1.994-0.58-2.432-1.619c1.502,0.377,2.982,0.837,4.467,1.289
					c0.014-1.004,0.014-2.008,0.006-3.012c-1.851-0.557-3.681-1.191-5.552-1.68c-0.374-0.369-0.743-0.74-1.075-1.146
					c2.209,0.638,4.428,1.268,6.621,1.975C127.948,18.76,127.92,17.448,127.965,16.137z M131.395,21.876
					c0,1.023-0.273,2.146,0.106,3.114c0.97,0.443,2.035,0.632,3.05,0.962c0.064-1.04,0.055-2.082,0.039-3.125
					C133.543,22.444,132.462,22.176,131.395,21.876z M129.32,28.04c0.561,0.205,1.123,0.413,1.691,0.604
					c0.086-1.004,0.069-2.008,0.059-3.014c-0.538-0.194-1.073-0.396-1.627-0.532C129.227,26.063,129.34,27.062,129.32,28.04z
					 M134.652,26.704c-0.068,0.983-0.057,1.974-0.055,2.961c0.565,0.178,1.125,0.374,1.688,0.565
					c0.053-0.995,0.177-2.01-0.011-2.994C135.775,26.953,135.202,26.851,134.652,26.704z M129.324,31.936
					c0.57,0.205,1.145,0.402,1.725,0.585c0.025-0.981,0.083-1.968-0.005-2.947c-0.483-0.383-1.104-0.532-1.659-0.771
					C129.301,29.846,129.314,30.891,129.324,31.936z M134.639,30.619c-0.086,0.979-0.033,1.963-0.033,2.944
					c0.568,0.178,1.137,0.357,1.705,0.538c0.043-1.029,0.111-2.068-0.004-3.098C135.792,30.771,135.213,30.389,134.639,30.619z"/>
			</g>
			<g>
				<path fill="#FFFFFF" d="M67.731,20.144c0.871-0.63,1.481-1.569,2.404-2.13c0.917,0.316,1.866,0.648,2.642,1.248
					c-0.263,0.939-1.12,1.649-0.984,2.714c1.109-0.496,1.714-1.58,2.49-2.451c0.94,0.395,1.819,0.918,2.681,1.456
					c-1.63,0.663-3.358,1.023-5.005,1.642c-0.022,0.929,0.305,2.135-0.532,2.798c-1.991,0.734-4.045,1.295-6.062,1.963
					c-0.03,0.644-0.036,1.289-0.033,1.936c1.348-0.466,2.765-0.796,4.01-1.517c0.604-0.449,0.951-1.153,1.425-1.728
					c0.94,0.258,1.855,0.621,2.673,1.162c-1.395,0.748-2.953,1.092-4.419,1.666c-1.204,0.46-2.435,0.835-3.683,1.143
					c-0.002,0.568,0.008,1.137,0.036,1.702c2.227-0.698,4.531-1.164,6.702-2.026c0.74-0.729,1.178-1.728,1.966-2.427
					c0.959,0.469,2.074,0.793,2.753,1.672c-1.899,1.004-4.06,1.367-6.103,1.985c0.704,0.35,1.414,0.683,2.102,1.063
					c-0.283,0.433-0.59,0.851-0.917,1.253c-0.399,1.955,0.158,3.915,0.119,5.879c-0.976,0.968-2.171,1.716-3.472,2.159
					c-0.535-0.609-0.241-1.491-0.333-2.227c-2.889,0.871-5.765,1.789-8.64,2.704c-0.005,0.529-0.005,1.062-0.003,1.592
					c-0.973,0.82-2.041,1.556-3.266,1.938c-0.583-3.232-0.316-6.516-0.408-9.773c-1.082,0.296-2.154,0.632-3.197,1.048
					c-0.38-0.149-0.763-0.3-1.14-0.452c3.397-1.289,6.935-2.188,10.39-3.313c0.005-0.576,0.008-1.15,0.008-1.725
					c-2.18,0.771-4.403,1.408-6.602,2.115c-0.535,0.244-1.045-0.107-1.52-0.321c2.673-0.981,5.435-1.694,8.119-2.643
					c0.005-0.602,0.017-1.2,0.028-1.8c-1.811,0.571-3.613,1.171-5.416,1.77c-0.66,0.258-1.312,0.022-1.78-0.466
					c2.379-0.763,4.802-1.372,7.167-2.18c0.003-0.612,0.003-1.226,0-1.841c-3.127,1.14-6.338,2.021-9.469,3.149
					c-0.205-0.141-0.618-0.424-0.823-0.565c3.388-1.22,6.885-2.115,10.298-3.269c-0.002-0.655-0.005-1.31-0.014-1.964
					c-1.972,0.683-3.959,1.32-5.939,1.978c-0.469,0.235-0.884-0.155-1.287-0.333c2.365-0.923,4.839-1.514,7.234-2.346
					c0.005-1.27,0.003-2.543,0.005-3.815c1.45,0.063,2.892-0.208,4.342-0.158l0.25,0.244c-0.416,0.455-1.226,0.699-1.181,1.434
					c-0.025,0.396-0.039,0.793-0.039,1.192C66.14,20.956,67.044,20.739,67.731,20.144z M65.328,22.147
					c0,0.622,0.014,1.245,0.047,1.866c0.987-0.388,2.035-0.59,3.011-1.006c0.064-0.63,0.042-1.259,0.022-1.889
					C67.379,21.452,66.351,21.793,65.328,22.147z M65.338,24.829c0,0.555,0.02,1.106,0.061,1.658c0.996-0.333,2.052-0.491,3-0.951
					c0.072-0.593,0.03-1.192,0.011-1.785C67.401,24.147,66.373,24.499,65.338,24.829z M56.815,35.225
					c0.066,0.089,0.197,0.261,0.261,0.347c0.868-0.064,1.73,0.044,2.595,0.063c2.915-0.751,5.862-1.479,8.582-2.803
					c0.602-0.339,0.954-0.963,1.336-1.512C65.313,32.56,61.085,33.966,56.815,35.225z M59.424,36.511
					c0.002,0.571,0.014,1.146,0.039,1.72c2.937-0.829,5.89-1.661,8.768-2.665c0.036-0.591-0.014-1.182-0.028-1.771
					C65.297,34.764,62.333,35.549,59.424,36.511z M59.419,39.187c0.005,0.588,0.014,1.176,0.03,1.764
					c2.931-0.823,5.831-1.758,8.743-2.647c0.022-0.655,0.05-1.31,0.083-1.961C65.328,37.304,62.338,38.142,59.419,39.187z"/>
			</g>
			<path fill="#FFFFFF" d="M157.877,27.172c1.393,1.034,2.795,2.058,4.229,3.034c-0.313,0.252-0.646,0.482-0.929,0.771
				c-0.108,0.668-0.065,1.351-0.065,2.026c1.461,0.672,2.925,1.346,4.392,2.008c0.039-1.428-0.03-2.858,0.044-4.284
				c1.641,0.805,2.917,2.183,4.375,3.267c-0.355,0.267-0.727,0.508-1.051,0.81c-0.105,0.547-0.081,1.109-0.096,1.664
				c0.771,0.36,1.567,0.668,2.347,1.015c0.594-0.394,1.176-0.807,1.756-1.229c1.078,1.378,2.337,2.635,3.208,4.165
				c-2.52-0.74-4.809-2.068-7.254-2.997c-0.042,0.848-0.044,1.699-0.044,2.551c-0.114,0.103-0.345,0.305-0.461,0.407
				c-1.009-0.43-2.093-0.804-2.813-1.678c0.002-0.935,0.002-1.868,0-2.8c-1.438-0.68-2.89-1.312-4.32-1.997
				c-0.06,0.901-0.075,1.808-0.207,2.704c-1.045-0.184-2.287-0.291-3.004-1.168c-0.256-0.992-0.069-2.052-0.137-3.069
				c-1.503-0.576-2.986-1.2-4.503-1.732c-0.887-0.239-1.356-1.079-1.862-1.764c2.109,0.912,4.17,1.969,6.379,2.634
				C157.867,30.064,157.848,28.617,157.877,27.172z"/>
			<path fill="#FFFFFF" d="M40.774,31.445c0.851-0.776,1.328-1.853,1.667-2.934c1.314,0.291,2.653,0.526,3.887,1.081
				c-0.76,1.478-1.566,2.928-2.224,4.456c-0.89-0.663-1.703-1.461-2.72-1.933c-2.548,1.117-5.032,2.393-7.495,3.69
				c0.147,1.272-0.125,2.528-0.682,3.674c2.121-1.156,4.364-2.082,6.408-3.374c0.774-0.433,0.862-1.412,1.176-2.157
				c0.926,0.271,1.844,0.582,2.695,1.045c-3.99,2.199-8.033,4.334-12.231,6.092c-0.299-0.302-0.588-0.615-0.868-0.935
				c0.385-1.316,1.206-2.429,1.855-3.615c0.615-1.073,0.313-2.343,0.469-3.508c0.479,0.607,0.845,1.295,1.192,1.985
				c0.585-0.273,1.165-0.558,1.744-0.84c0.039-1.614-0.058-3.23,0.089-4.839c1.073-0.006,2.121,0.344,2.958,1.021
				c-0.203,0.81-0.543,1.586-0.591,2.429C39.002,32.357,39.923,31.961,40.774,31.445z"/>
			<g>
				<path fill="#FFFFFF" d="M23.517,37.337c3.183,0.017,5.854-1.863,8.695-3.003c-0.086,0.838-0.721,1.42-1.178,2.071
					c-1.25,1.803-1.694,4.01-2.828,5.873c1.314,0.095,2.285,0.929,3.197,1.786c1.627-0.663,3.181-1.501,4.739-2.311
					c1.697-1.316,3.824-1.86,5.656-2.938c0.577-0.565,0.835-1.367,1.187-2.077c1.092,0.244,2.207,0.363,3.297,0.604
					c-1.766,1.165-3.721,2.019-5.596,2.997c0.031,2.208-0.058,4.42,0.036,6.625c0.308,0.513,0.99,0.299,1.478,0.288
					c1.578-0.763,2.052-2.582,2.628-4.09c0.868,0.856,1.688,1.764,2.396,2.762c0.002,0.202,0.008,0.602,0.011,0.804
					c-1.262,0.987-2.484,2.049-3.946,2.737c-1.691,0.768-3.324,2.01-5.282,1.811c-0.935-3.039-0.604-6.261-0.779-9.389
					c-0.347,0.318-0.599,0.721-0.555,1.209c-0.21,3.044-1.12,6.056-2.848,8.587c-1.869,2.24-3.865,4.45-6.361,6.006l-0.28-0.161
					c0.346-0.956,1.336-1.478,1.96-2.243c2.692-3.061,4.472-7.128,4.095-11.263c-0.477,0.261-0.951,0.529-1.428,0.796
					c0.036,0.63,0.111,1.265,0.033,1.896c-0.66,1.622-2.041,2.897-3.708,3.436c-0.452-0.011-0.904-0.022-1.358-0.033
					c0.136,2.013,0.055,4.031,0.075,6.048c0.042,0.709-0.313,1.372-0.762,1.896c-0.721,0.778-1.476,1.649-2.593,1.802
					C23.544,52.354,23.514,44.846,23.517,37.337z M26.739,37.887c-0.022,1.613,0.075,3.238-0.164,4.841
					c0.092-0.041,0.277-0.128,0.369-0.169c0.593-1.764,0.907-3.594,1.333-5.398C27.756,37.382,27.243,37.631,26.739,37.887z
					 M26.736,43.107c-0.011,2.091,0.003,4.182-0.008,6.272c0.763-0.289,1.636-0.603,2.021-1.387
					c0.347-0.915,0.338-1.955,0.033-2.881C28.375,44.222,27.518,43.646,26.736,43.107z"/>
			</g>
			<g>
				<path fill="#FFFFFF" d="M155.618,34.886c1.644,1.295,3.216,2.726,5.146,3.597c2.338,1.043,4.622,2.224,7.032,3.078
					c0.588-0.225,1.104-0.603,1.679-0.859c1.131,1.025,1.951,2.34,2.938,3.499c-0.314,0.297-0.662,0.565-0.932,0.906
					c-0.101,1.159-0.03,2.326-0.015,3.491c0.838-0.108,1.64-0.383,2.446-0.618c1.039,0.962,1.859,2.141,2.587,3.353
					c-1.325-0.128-2.481-0.815-3.683-1.326c-2.213-1.07-4.506-1.969-6.68-3.119c1.45,2.695,3.299,5.202,5.542,7.29
					c1.091,0.92,2.282,1.713,3.458,2.522c-0.793,0.896-1.756,1.681-2.908,2.044c-0.705,0.122-1.278-0.443-1.717-0.915
					c-1.248-1.414-2.855-2.567-3.677-4.314c-0.571-1.322-1.281-2.614-1.503-4.057c-0.146-0.945-0.344-1.883-0.546-2.817
					c-1.079,1.39-2.466,2.668-4.265,2.965c-2.535,0.277-5.123,0.258-7.637-0.191c-0.775-0.128-1.475-0.555-1.719-1.34
					c2.521,0.568,5.249,0.197,7.57-0.932c1.033-0.471,1.783-1.4,2.275-2.401c-2.712-1.236-5.396-2.542-8.201-3.558
					c-0.639-0.202-0.862-0.909-1.205-1.413c1.338,0.513,2.615,1.184,3.99,1.603C155.621,39.209,155.584,37.046,155.618,34.886z
					 M158.984,38.571c0.068,1.45-0.123,2.925,0.1,4.358c0.709,0.425,1.479,0.743,2.221,1.115c0.217-1.417,0.383-2.843,0.322-4.278
					C160.753,39.354,159.855,38.992,158.984,38.571z M165.198,41.191c-0.021,1.447-0.125,2.897-0.443,4.314
					c1.042,0.477,2.085,0.957,3.111,1.48c-0.08-1.491-0.107-2.986,0.006-4.475C166.986,42.06,166.088,41.632,165.198,41.191z"/>
			</g>
		</g>
	</g>
	<g id="Layer_8">
		<g>
			<g>
				<path fill="#AE2431" d="M119.717,86.814c2.025,0.771,4.021,1.613,6.042,2.392c-0.021,0.138-0.063,0.417-0.087,0.559
					c-1.271,0.229-2.208,1.092-2.967,2.092c1.316,0.037,2.638,0.033,3.954,0.042c0.858-0.663,1.708-1.337,2.55-2.021
					c1.242,0.704,2.43,1.496,3.633,2.263c0.721-1.708,1.387-3.438,1.963-5.2c2.07,0.925,4.291,1.517,6.25,2.679
					c-1.404,0.275-2.646,0.934-3.322,2.25c1.789-0.008,3.58,0.121,5.358-0.042c1.158-0.454,2.112-1.3,3.163-1.95
					c1.563,0.904,3.129,1.867,4.313,3.254c-3.729,0.279-7.475-0.075-11.199,0.2c1.371,0.583,2.763,1.121,4.092,1.796
					c-0.971,1.059-2.139,2.133-3.629,2.304c-0.913-1.25-1.063-2.871-1.921-4.154c-0.222-0.013-0.662-0.038-0.884-0.05
					c-2.058,1.371-3.94,3.004-6.07,4.275c3.563,0.309,7.134-0.054,10.699,0.046c1.418,0.117,2.393-1.221,3.722-1.417
					c1.442,0.658,2.742,1.587,4.013,2.525c-2.296,0.546-4.629-0.013-6.941,0.208c-2.446,0.233-4.896-0.292-7.338,0.067
					c0.018,0.696,0.033,1.392,0.055,2.088c1.471-0.004,2.938,0.042,4.408,0.004c1.25,0.054,2.207-0.871,3.337-1.25
					c1.388,0.508,2.991,1.063,3.729,2.454c-3.843,0.133-7.685,0.029-11.529,0.059c0.008,0.625,0.021,1.246,0.029,1.871
					c1.471-0.071,2.94-0.05,4.412-0.042c1.301,0.137,2.295-0.854,3.358-1.429c1.338,0.716,2.625,1.55,3.675,2.658
					c-3.809,0.196-7.629,0.05-11.445,0.083c-0.005,0.746-0.009,1.488-0.009,2.234c2.597,0.033,5.188-0.113,7.783-0.104
					c1.217,0.034,2.101-0.954,3.054-1.571c1.608,0.771,3.208,1.587,4.667,2.625c-0.538,0.358-1.071,0.712-1.604,1.063
					c-0.504,2.587-0.653,5.425-2.245,7.629c-1.962,1.813-4.763,2.192-7.287,2.663c0.204-2.45-2.222-3.633-4.25-4.042l0.021-0.621
					c2.438,0.008,5.113,1.017,7.321-0.467c0.625-1.892,0.946-3.871,0.996-5.862c-3.563-0.546-7.138,0.313-10.7-0.129
					c-3.078,0.167-6.162-0.275-9.236,0.121c-0.033,0.221-0.104,0.671-0.143,0.892c-1.742,0.504-3.521,0.962-5.35,0.958
					c0.042-4.883,0.058-9.767,0.042-14.65c-1.779,0.917-3.446,2.063-5.308,2.8c-0.313-0.071-0.935-0.216-1.246-0.287
					C114.88,95.144,117.738,91.198,119.717,86.814z M124.775,93.311c1.332,0.538,2.763,0.875,3.957,1.708
					c-1.086,1.238-2.42,2.388-4.157,2.421c-0.579-1.441-1.087-2.908-1.688-4.337c-1.688,0.154-2.804,1.513-3.975,2.571
					c1.958,0.804,3.883,2.1,6.096,1.867c1.68-0.05,3.354,0.067,5.034,0.146c0.679-1.563,1.729-2.917,2.504-4.429
					C129.959,93.244,127.363,93.152,124.775,93.311z M123.592,98.985c0.012,0.679,0.025,1.354,0.038,2.034
					c2.004,0,4.017,0.083,6.017-0.154c-0.004-0.471-0.008-1.408-0.008-1.875C127.63,98.723,125.602,98.71,123.592,98.985z
					 M123.604,102.302c0,0.458,0.004,1.375,0.004,1.833c2-0.038,4.004-0.05,6.004-0.017c0.014-0.608,0.025-1.212,0.039-1.817
					C127.639,102.277,125.621,102.277,123.604,102.302z M123.617,105.419c-0.004,0.704-0.008,1.408-0.018,2.108
					c2.033,0.142,4.071,0.159,6.101-0.029c-0.089-0.696-0.179-1.388-0.275-2.079C127.488,105.444,125.555,105.439,123.617,105.419z"
					/>
			</g>
			<path fill="#AE2431" d="M134.271,109.227c2.662-0.171,5.392,0.629,7.274,2.579c-0.125,1.309-0.987,2.304-1.913,3.154
				c-0.754-0.15-1.703,0.042-2.221-0.663c-0.607-1.025-0.518-2.329-1.196-3.325C135.654,110.302,134.921,109.806,134.271,109.227z"
				/>
			<path fill="#AE2431" d="M127.909,109.723c2.567,0.659,6.013,0.913,7.229,3.675c-0.084,1.854-2.293,2.966-3.964,2.712
				c-0.911-0.758-0.819-2.083-1.188-3.121C129.727,111.669,128.709,110.735,127.909,109.723z"/>
			<path fill="#AE2431" d="M122.643,110.206c1.842,1.233,4.338,1.821,5.471,3.888c0.967,2.421-2.893,4.316-4.563,2.763
				c-0.275-1.121,0-2.288-0.042-3.429C123.534,112.294,122.988,111.256,122.643,110.206z"/>
			<path fill="#AE2431" d="M116.271,113.944c1.774-0.517,3.004-1.962,4.304-3.179c0.045,1.804,0.054,3.717-0.779,5.367
				c-1.226,1.592-3.288,2.721-5.337,2.354c-1.104-0.233-1.805-1.163-2.329-2.087C112.684,114.556,114.771,114.527,116.271,113.944z"
				/>
			<path fill="#AE2431" d="M133.167,125.536c2.621,0.321,5.375,0.054,7.854,1.112c-1.451,2.024-0.879,4.565-0.946,6.883
				c1.133-0.021,2.278,0.083,3.407-0.088c1.447-0.566,2.672-1.566,4.013-2.328c1.875,1.091,3.983,1.949,5.421,3.633
				c-9.018,0.104-18.038-0.018-27.059,0.063c-0.446-0.408-0.889-0.813-1.334-1.221c3.238-0.142,6.479-0.033,9.722-0.066
				c-0.013-1.988,0.045-3.976-0.004-5.959C134.32,126.723,133.596,126.165,133.167,125.536z"/>
			<path fill="#AE2431" d="M118.639,131.631c0.582-1.695,0.965-3.454,1.549-5.154c2.576,0.955,5.293,1.547,7.768,2.771
				c-0.667,0.445-1.346,0.875-2.038,1.275c-1.028,2.045-2.263,4.004-3.097,6.142c-0.299,7.192-0.149,14.399-0.146,21.596
				c-1.596,1.029-3.479,1.58-5.379,1.288c-0.351-5.554-0.392-11.125-0.362-16.691c-1.758,1.354-3.559,2.75-5.638,3.563
				c-0.241-0.075-0.721-0.225-0.958-0.3C113.779,141.719,116.779,136.923,118.639,131.631z"/>
			<path fill="#AE2431" d="M140,138.339c1.754,0.113,2.917-1.537,4.555-1.887c1.787,0.604,3.295,1.833,4.762,2.991
				c-7.362,0.313-14.75,0.063-22.116,0.13c-0.454-0.412-0.908-0.821-1.363-1.226C130.559,138.314,135.279,138.339,140,138.339z"/>
			<path fill="#AE2431" d="M140.792,142.54c1.192-0.45,2.226-1.229,3.338-1.833c1.8,0.912,3.67,1.783,5.129,3.208
				c-7.346,0.19-14.704,0.008-22.058,0.096c-0.467-0.475-0.926-0.958-1.379-1.446c3.184,0.004,6.367,0.205,9.546,0.043
				C137.175,142.469,139,142.852,140.792,142.54z"/>
			<g>
				<path fill="#AE2431" d="M139.146,147.089c1.867,0.2,2.778-1.929,4.475-2.319c1.809,0.896,3.479,2.062,5.063,3.308
					c-0.625,0.565-1.274,1.104-1.938,1.621c-0.055,2.362,0.025,4.729-0.029,7.092c0.051,0.8-0.508,1.504-1.254,1.742
					c-1.554,0.558-3.188,0.903-4.837,0.983c-0.013-1.393,0.008-2.789,0.021-4.18c-2.679,0.029-5.362,0.012-8.041,0.012
					c0,0.9-0.004,1.797-0.01,2.696c-1.646,1.3-3.808,1.462-5.828,1.496c-0.672-1.679-0.404-3.513-0.447-5.274
					c0.047-3.033-0.092-6.076,0.093-9.108c2.829,0.692,5.55,2.129,8.528,1.938C136.346,147.077,137.747,147.102,139.146,147.089z
					 M132.602,153.573c2.674-0.083,5.357-0.063,8.037-0.017c-0.008-1.617-0.008-3.229,0.008-4.847c-2.684,0.021-5.367,0.024-8.054,0
					C132.609,150.331,132.609,151.952,132.602,153.573z"/>
			</g>
		</g>
		<g>
			<g>
				<path fill="#AE2431" d="M72.447,85.908c2.25,0.8,4.521,1.542,6.775,2.337c-2.358,0.775-4.1,2.538-5.679,4.375
					c1.8-0.075,3.746,0.325,5.413-0.546c0.975-0.458,1.892-1.054,2.933-1.362c1.504,0.813,2.85,1.879,4.188,2.938
					c-5.138,0.504-10.313,0.112-15.467,0.258c0.004,0.875,0.008,1.754,0.021,2.633c1.754-0.025,3.525,0.146,5.275-0.071
					c1.133-0.425,2.121-1.154,3.137-1.796c1.446,0.879,2.867,1.813,4.096,2.979c-4.163,0.341-8.354,0.079-12.529,0.15
					c0,0.958,0.004,1.917,0.017,2.879c2.396,0.009,4.792,0.025,7.188,0.013c1.737,0.121,2.95-1.392,4.545-1.788
					c1.813,0.475,3.292,1.779,4.729,2.925c-3.771,0.275-7.554,0.004-11.329,0.138c0.975,0.279,1.975,0.438,2.971,0.633
					c-1.946,1.071-3.683,2.471-5.625,3.559c2.492,0,4.992,0.108,7.479-0.029c1.429-0.483,2.612-1.492,3.92-2.221
					c1.779,0.892,3.517,1.925,4.946,3.329c-4.188,0.45-8.412-0.021-12.608,0.267c1.462,0.85,3.187,1.225,4.529,2.279
					c0.313,0.763-0.642,1.108-1.012,1.625c-0.496,0.358-0.342,1.033-0.384,1.554c0.021,1.846,0.171,3.687,0.083,5.533
					c-1.867,0.792-3.858,1.346-5.9,1.383c-0.05-1.108-0.071-2.212-0.087-3.317c-4.229-0.025-8.455,0.013-12.679-0.025
					c-0.188,0.871,0.288,2.154-0.679,2.646c-1.754,0.821-3.733,0.871-5.633,0.846c-0.092-4.2,0.008-8.4-0.054-12.6
					c-2.629-0.017-5.258,0-7.883-0.008c-0.388-0.404-0.767-0.816-1.146-1.229c4.809-0.046,9.612,0.042,14.421-0.046
					c-0.487-1.696-1.454-3.317-3.079-4.133c-2.142-0.225-4.304,0.083-6.446-0.125c-0.629-0.304-1.167-0.763-1.733-1.167
					c5.212-0.075,10.429-0.004,15.642-0.037c0.004-0.962,0.008-1.929,0.017-2.892c-3.308,0.012-6.617,0.045-9.921,0.004
					c-0.862,0.059-1.379-0.746-2-1.196c3.971-0.108,7.95-0.004,11.925-0.058c-0.013-0.946-0.029-1.888-0.063-2.829
					c-4.408,0.096-8.821,0.287-13.229,0.142c-0.867,0.017-1.467-0.671-2.104-1.146c3.983-0.196,7.975-0.042,11.962-0.087
					c-1.392-2.429-2.933-4.817-5.217-6.5c3.125,0.108,6.279,0.85,9.042,2.329c1.542,0.908,1.092,2.821,0.596,4.204
					c1.283-0.054,2.592,0.054,3.85-0.267C70.935,90.4,71.793,88.175,72.447,85.908z M62.239,101.913c1,0.479,2.279,0.67,2.858,1.733
					c0.333,0.887-0.196,1.758-0.483,2.575c1.746-0.054,3.496-0.033,5.246-0.038c0.833-1.35,1.566-2.762,2.2-4.221
					C68.785,101.925,65.51,101.983,62.239,101.913z M56.285,107.512c1.7,0.792,3.429,1.654,5.283,2
					c3.608,0.087,7.221-0.004,10.833,0.041c1.729,0.225,2.925-1.237,4.229-2.091C69.851,107.433,63.064,107.342,56.285,107.512z
					 M61.331,110.975c0,1.367-0.059,2.738,0.021,4.104c0.525,0.392,1.233,0.175,1.837,0.246c3.637-0.033,7.275,0.013,10.913-0.029
					c-0.004-1.442-0.008-2.879-0.004-4.317C69.843,110.983,65.585,110.992,61.331,110.975z"/>
			</g>
			<path fill="#AE2431" d="M53.81,132.771c1.559-1.783,2.617-3.914,3.858-5.912c2.233,1.188,4.642,2.1,6.658,3.658
				c-2.071,0.85-4.133,1.803-5.804,3.328c2.246,1.117,4.521,2.184,6.704,3.426c-1.425,0.679-2.858,1.384-3.95,2.559
				c6.071,0.004,12.142-0.008,18.208,0.008c2.066,0.184,3.441-1.771,5.333-2.183c1.721,0.716,3.271,1.875,4.5,3.274
				c-3.033,0.305-6.091,0.092-9.137,0.154c-0.013,5.075,0.033,10.146-0.017,15.221c0.08,1.2-0.938,2.021-1.841,2.617
				c-1.6,0.883-3.396,1.292-5.15,1.746c-0.471-1.154-0.771-2.521-1.879-3.254c-1.533-1.038-3.358-1.514-4.971-2.404
				c2.642-0.667,5.296,0.5,7.966,0.188c0.184-4.708,0.013-9.417,0.096-14.125c-3.592,0.021-7.184,0.017-10.775,0.012
				c-1.021,0.121-1.692-0.787-2.467-1.283c-0.421,0.722-1.054,1.417-0.975,2.313c-0.013,5.717-0.083,11.433,0.313,17.137
				c-1.904,0.925-3.975,1.514-6.108,1.371c-0.1-4.809-0.096-9.612-0.142-14.421c-2.138,1.337-4.262,2.741-6.625,3.649
				c-0.533,0.205-1.104-0.028-1.65-0.055c2.387-2.313,4.521-4.841,6.771-7.283c1.983-2.453,3.508-5.246,4.979-8.029
				c-2.946,1.789-5.929,3.556-9.113,4.879c-0.295-0.12-0.887-0.354-1.183-0.471C49.831,137.158,51.78,134.921,53.81,132.771z"/>
			<path fill="#AE2431" d="M77.235,131.504c1.371-0.518,2.512-1.5,3.8-2.191c1.679,1.021,3.337,2.093,4.813,3.4
				c-6.433,0.487-12.917-0.129-19.354,0.408c-1.358,0.275-2.375-0.637-3.288-1.496C67.876,131.43,72.564,131.684,77.235,131.504z"/>
		</g>
	</g>
	<g>
		<g>
			<path fill="#AE2431" d="M15.2,185.027h50.055c-0.114,1.352-0.036,2.712-0.049,4.066c11.564,8.583,23.121,17.18,34.684,25.766
				c0.066,0.045,0.152,0.045,0.221,0c11.563-8.586,23.12-17.183,34.684-25.766c-0.021-1.354,0.079-2.718-0.057-4.066H184.8v0.064
				c-0.065,1.003-0.036,2.01-0.039,3.014c-0.003,1.561,0.003,3.121-0.002,4.68c-10.2,0.003-20.399-0.002-30.601,0.002
				c-0.43-0.073-0.721,0.267-1.04,0.477c-6.808,4.9-13.625,9.786-20.433,14.688c-7.711,5.531-15.408,11.08-23.121,16.604
				c-0.008,4.703-0.01,9.406,0.002,14.109c0.1,1.164,0.802,2.184,1.664,2.931c0.549,0.481,1.156,0.901,1.813,1.22
				c0.888,0.347,1.79,0.686,2.588,1.219c0.722,0.47,1.411,1.04,1.841,1.798c0.308,0.515,0.435,1.121,0.442,1.715
				c0.019,1.04-0.006,1.412,0.002,2.453H82.081c0.004-1.015-0.008-1.358-0.003-2.373c-0.013-0.624,0.135-1.253,0.447-1.795
				c0.72-1.192,1.951-1.966,3.198-2.519c0.566-0.271,1.192-0.41,1.722-0.76c1.129-0.682,2.211-1.589,2.726-2.836
				c0.221-0.492,0.274-1.038,0.263-1.572c0.011-4.529,0.009-9.062,0.002-13.592c-0.679-0.48-1.364-0.953-2.029-1.451
				c-0.854-0.631-1.736-1.22-2.583-1.857c-0.946-0.697-1.923-1.352-2.863-2.057c-0.831-0.612-1.689-1.187-2.514-1.807
				c-0.901-0.663-1.829-1.288-2.727-1.955c-0.88-0.656-1.796-1.265-2.674-1.925c-0.9-0.663-1.829-1.288-2.726-1.955
				c-0.843-0.629-1.719-1.212-2.561-1.84c-0.842-0.628-1.718-1.211-2.56-1.84c-0.897-0.667-1.825-1.292-2.727-1.955
				c-0.877-0.661-1.793-1.269-2.674-1.925c-0.897-0.668-1.825-1.293-2.726-1.957c-0.84-0.631-1.715-1.215-2.561-1.84
				c-1.023-0.768-2.09-1.476-3.113-2.244c-0.74-0.543-1.501-1.057-2.24-1.602c-0.933-0.699-1.901-1.35-2.84-2.04
				c-0.62-0.463-1.253-0.907-1.883-1.358c-0.215-0.2-0.529-0.143-0.796-0.166c-10.134,0.01-20.267,0.005-30.4,0.004
				c-0.003-2.133-0.003-4.266,0.002-6.398c0.001-0.433-0.019-0.865-0.043-1.297v-0.061H15.2z"/>
		</g>
	</g>
</g>
<g id="Layer_6">
	<path fill="#0F5A28" d="M17.521,187.508c15.146-0.002,30.291-0.001,45.438,0c0.006,0.867-0.001,1.733-0.005,2.6
		c0.024,0.117-0.044,0.314,0.091,0.395c11.777,8.755,23.554,17.514,35.332,26.268c0.521,0.387,1.03,0.789,1.563,1.156
		c0.097,0.067,0.185-0.066,0.261-0.096c12.273-9.13,24.551-18.256,36.828-27.382c0.021-0.98,0.004-1.96,0.012-2.94
		c15.146-0.001,30.292-0.001,45.438,0c-0.01,0.995,0.021,1.99-0.011,2.985c-0.166,0.129-0.438,0.015-0.628,0.059
		c-9.533-0.013-19.068,0.005-28.604-0.009c-0.131,0.014-0.243-0.02-0.354,0.051c-2.553,1.785-5.063,3.631-7.604,5.436
		c-2.119,1.488-4.201,3.029-6.317,4.522c-2.079,1.462-4.123,2.974-6.2,4.44c-1.467,1.037-2.927,2.083-4.378,3.14
		c-1.595,1.14-3.194,2.272-4.788,3.414c-1.545,1.142-3.121,2.237-4.682,3.356c-1.498,1.062-2.973,2.152-4.473,3.211
		c-2.478,1.746-4.922,3.539-7.396,5.291c-0.022,5.061,0.002,10.121-0.013,15.184c0.008,0.307-0.029,0.626,0.078,0.921
		c0.256,0.923,0.752,1.759,1.33,2.515c0.531,0.676,1.109,1.318,1.785,1.854c0.381,0.289,0.729,0.631,1.17,0.832
		c0.666,0.314,1.379,0.507,2.084,0.714c0.771,0.251,1.571,0.651,1.953,1.406c0.188,0.327,0.209,0.708,0.217,1.078
		c-10.436,0.002-20.871,0.002-31.305,0c0.008-0.339,0.011-0.689,0.173-0.996c0.333-0.737,1.078-1.17,1.813-1.425
		c0.892-0.277,1.817-0.498,2.63-0.976c0.733-0.563,1.465-1.143,2.066-1.852c0.565-0.627,1.055-1.326,1.44-2.077
		c0.231-0.532,0.499-1.078,0.485-1.673c0.01-5.067-0.004-10.136,0.007-15.203c-0.024-0.11,0.039-0.284-0.09-0.353
		c-1.857-1.361-3.748-2.678-5.62-4.021c-1.592-1.157-3.191-2.304-4.8-3.44c-1.825-1.291-3.623-2.619-5.45-3.908
		c-2.242-1.582-4.451-3.207-6.689-4.793c-2.157-1.518-4.277-3.086-6.436-4.603c-1.602-1.129-3.176-2.293-4.773-3.426
		c-1.515-1.085-3.045-2.149-4.543-3.257c-2.425-1.737-4.865-3.451-7.272-5.211c-0.168-0.146-0.397-0.151-0.608-0.148
		c-9.534,0.003-19.068-0.002-28.602,0.003c-0.188-0.006-0.376-0.018-0.564-0.018C17.522,189.523,17.518,188.516,17.521,187.508z"/>
</g>
</svg>
